<svg width="32" height="25" viewBox="0 0 32 25" fill="none" xmlns="http://www.w3.org/2000/svg">
<path d="M3.10425 24.1666C2.54522 24.1666 2.04088 23.9418 1.59123 23.4922C1.14157 23.0425 0.916748 22.5382 0.916748 21.9791V3.02081C0.916748 2.46179 1.14157 1.95745 1.59123 1.50779C2.04088 1.05814 2.54522 0.833313 3.10425 0.833313H12.4376C12.7399 0.833313 13.0282 0.894077 13.3024 1.0156C13.5765 1.13713 13.8119 1.29621 14.0086 1.49285L15.5365 3.02081H28.9897C29.2996 3.02081 29.5594 3.1263 29.7691 3.33727C29.9787 3.548 30.0834 3.80929 30.0834 4.12113C30.0834 4.43272 29.9787 4.69182 29.7691 4.89842C29.5594 5.10501 29.2996 5.20831 28.9897 5.20831H14.5886L12.4011 3.02081H3.10425V21.9791L6.3855 9.03644C6.50703 8.55033 6.77232 8.15536 7.18138 7.85154C7.5902 7.54772 8.04192 7.39581 8.53654 7.39581H29.4636C30.1685 7.39581 30.7457 7.67533 31.1954 8.23435C31.645 8.79338 31.7727 9.42533 31.5782 10.1302L28.3699 22.4896C28.224 23.0729 27.9567 23.4982 27.5678 23.7656C27.1789 24.033 26.6806 24.1666 26.073 24.1666H3.10425ZM5.40112 21.9791H26.2553L29.3178 9.58331H8.46362L5.40112 21.9791Z" fill="black"/>
</svg>
