<svg width="25" height="27" viewBox="0 0 25 27" fill="none" xmlns="http://www.w3.org/2000/svg">
<path d="M3.02075 24.4375H8.4895V16.4167C8.4895 16.1068 8.59438 15.8469 8.80414 15.6372C9.01365 15.4277 9.27336 15.3229 9.58325 15.3229H15.4166C15.7265 15.3229 15.9863 15.4277 16.1961 15.6372C16.4056 15.8469 16.5103 16.1068 16.5103 16.4167V24.4375H21.9791V10.2188L12.4999 3.10938L3.02075 10.2188V24.4375ZM0.833252 24.4375V10.2188C0.833252 9.8724 0.910787 9.54427 1.06586 9.23438C1.22068 8.92448 1.43481 8.66927 1.70825 8.46875L11.1874 1.35938C11.5685 1.06771 12.0041 0.921875 12.4941 0.921875C12.9841 0.921875 13.4235 1.06771 13.8124 1.35938L23.2916 8.46875C23.565 8.66927 23.7793 8.92448 23.9343 9.23438C24.0892 9.54427 24.1666 9.8724 24.1666 10.2188V24.4375C24.1666 25.0391 23.9525 25.554 23.5242 25.9822C23.0957 26.4107 22.5806 26.625 21.9791 26.625H15.4166C15.1067 26.625 14.847 26.5201 14.6375 26.3104C14.4277 26.1008 14.3228 25.8411 14.3228 25.5312V17.5104H10.677V25.5312C10.677 25.8411 10.5722 26.1008 10.3627 26.3104C10.153 26.5201 9.89315 26.625 9.58325 26.625H3.02075C2.41919 26.625 1.90428 26.4107 1.47601 25.9822C1.04751 25.554 0.833252 25.0391 0.833252 24.4375Z" fill="black"/>
</svg>
