<svg width="114" height="14" viewBox="0 0 114 14" fill="none" xmlns="http://www.w3.org/2000/svg">
<path d="M12.08 13.14V14H0V13.14H1.94V0.0199988H11.26L11.24 2.22H4.3V6.06H10.5V8.24H4.3V13.14H12.08ZM24.6903 13.14V14H12.0703V13.14H14.0103V0.0199988H16.3703V11.76H22.7503V13.14H24.6903ZM25.3384 13.14V0.0199988H27.6984V13.14H29.6384V14H23.3984V13.14H25.3384ZM43.3089 13.14V14H29.6289V13.14H31.5689V0.0199988H36.3689C38.4889 0.0199988 40.0356 0.426666 41.0089 1.24C41.9822 2.05333 42.4689 3.30667 42.4689 5C42.4689 6.69333 41.9689 7.93333 40.9689 8.72C39.9822 9.50667 38.4622 9.9 36.4089 9.9H33.9289V13.14H43.3089ZM36.6689 7.76C37.9756 7.76 38.8622 7.51333 39.3289 7.02C39.8089 6.51333 40.0489 5.78 40.0489 4.82C40.0489 3.84667 39.7489 3.16 39.1489 2.76C38.5489 2.36 37.6089 2.16 36.3289 2.16H33.9289V7.76H36.6689ZM55.9208 13.14V14H43.3008V13.14H45.2408V0.0199988H47.6008V11.76H53.9808V13.14H55.9208ZM56.5689 13.14V0.0199988H66.3889V2.24H58.9289V5.94H65.6289V8.04H58.9289V11.78H66.6289V13.14H68.5689V14H54.6289V13.14H56.5689ZM84.4948 13.14V14H80.0348L78.6348 10.82H71.6348L70.2348 14H65.7748V13.14H68.0948L73.8748 0.0199988H76.3948L82.1748 13.14H84.4948ZM77.6748 8.64L75.1348 2.88L72.5948 8.64H77.6748ZM97.6186 13.14V14H93.2986L89.9586 9.3H86.8586V14H82.5586V13.14H84.4986V0.0199988H89.6986C91.8319 0.0199988 93.3586 0.379999 94.2786 1.1C95.1986 1.82 95.6586 2.97333 95.6586 4.56C95.6586 6.86667 94.6519 8.32 92.6386 8.92L95.6786 13.14H97.6186ZM89.7986 7.16C91.1319 7.16 92.0386 6.95333 92.5186 6.54C92.9986 6.12667 93.2386 5.46667 93.2386 4.56C93.2386 3.64 92.9919 3.01333 92.4986 2.68C92.0053 2.33333 91.1253 2.16 89.8586 2.16H86.8586V7.16H89.7986ZM99.0494 13.14V0.0199988H101.409L109.529 10.46V0.0199988H111.889V13.14H113.829V14H109.329L101.409 3.8V14H97.1094V13.14H99.0494Z" fill="black"/>
</svg>
