<svg width="31" height="31" viewBox="0 0 31 31" fill="none" xmlns="http://www.w3.org/2000/svg">
<path d="M17.797 20.6042C18.2004 20.6042 18.5504 20.4559 18.847 20.1594C19.1435 19.8629 19.2917 19.5129 19.2917 19.1094C19.2917 18.7059 19.1435 18.3559 18.847 18.0594C18.5504 17.7629 18.2004 17.6146 17.797 17.6146C17.3935 17.6146 17.0435 17.7629 16.747 18.0594C16.4504 18.3559 16.3022 18.7059 16.3022 19.1094C16.3022 19.5129 16.4504 19.8629 16.747 20.1594C17.0435 20.4559 17.3935 20.6042 17.797 20.6042ZM17.7605 16.0104C18.0036 16.0104 18.2041 15.9314 18.3621 15.7735C18.52 15.6155 18.6233 15.415 18.672 15.1719C18.7449 14.783 18.8761 14.4473 19.0657 14.1649C19.2553 13.8825 19.598 13.5011 20.0938 13.0209C20.7744 12.3646 21.2362 11.8062 21.4792 11.3456C21.7223 10.885 21.8438 10.3435 21.8438 9.72101C21.8438 8.60052 21.461 7.68554 20.6954 6.97606C19.9298 6.26634 18.9317 5.91148 17.7011 5.91148C16.9048 5.91148 16.1809 6.09377 15.5292 6.45835C14.8779 6.82294 14.3577 7.33335 13.9688 7.9896C13.8473 8.18405 13.8352 8.39065 13.9324 8.6094C14.0296 8.82815 14.1997 8.99828 14.4428 9.11981C14.6615 9.21703 14.8803 9.22518 15.099 9.14424C15.3178 9.06306 15.5001 8.92124 15.6459 8.71877C15.9133 8.32988 16.2153 8.04429 16.5519 7.862C16.8883 7.67971 17.2669 7.58856 17.6876 7.58856C18.3924 7.58856 18.9758 7.79516 19.4376 8.20835C19.8994 8.62155 20.1303 9.14412 20.1303 9.77606C20.1303 10.2622 20.0209 10.6875 19.8022 11.0521C19.5834 11.4167 19.1945 11.8056 18.6355 12.2188C17.9549 12.8264 17.5114 13.3125 17.3048 13.6771C17.0982 14.0417 16.9706 14.54 16.922 15.1719C16.8977 15.3955 16.9686 15.5912 17.1349 15.7589C17.3014 15.9266 17.5099 16.0104 17.7605 16.0104ZM7.47925 25.7084C6.89592 25.7084 6.3855 25.4896 5.948 25.0521C5.5105 24.6146 5.29175 24.1042 5.29175 23.5209V3.10419C5.29175 2.52085 5.5105 2.01044 5.948 1.57294C6.3855 1.13544 6.89592 0.916687 7.47925 0.916687H27.8959C28.4792 0.916687 28.9897 1.13544 29.4272 1.57294C29.8647 2.01044 30.0834 2.52085 30.0834 3.10419V23.5209C30.0834 24.1042 29.8647 24.6146 29.4272 25.0521C28.9897 25.4896 28.4792 25.7084 27.8959 25.7084H7.47925ZM7.47925 23.5209H27.8959V3.10419H7.47925V23.5209ZM3.10425 30.0834C2.52091 30.0834 2.0105 29.8646 1.573 29.4271C1.1355 28.9896 0.916748 28.4792 0.916748 27.8959V6.38544C0.916748 6.07554 1.02223 5.81571 1.23321 5.60596C1.44394 5.39644 1.70522 5.29169 2.01706 5.29169C2.32866 5.29169 2.58776 5.39644 2.79435 5.60596C3.00095 5.81571 3.10425 6.07554 3.10425 6.38544V27.8959H24.6147C24.9246 27.8959 25.1844 28.0013 25.3941 28.2123C25.6037 28.423 25.7084 28.6843 25.7084 28.9962C25.7084 29.3078 25.6037 29.5669 25.3941 29.7735C25.1844 29.9801 24.9246 30.0834 24.6147 30.0834H3.10425Z" fill="black"/>
</svg>
