<svg width="320" height="180" viewBox="0 0 320 180" fill="none" xmlns="http://www.w3.org/2000/svg">
<rect width="320" height="180" rx="10" fill="white"/>
<rect x="11.15" y="68.15" width="144.7" height="39.7" rx="9.85" fill="white" stroke="#8B8B8B" stroke-width="0.3"/>
<rect x="164.15" y="68.15" width="144.7" height="39.7" rx="9.85" fill="#BDFFC5" stroke="#8B8B8B" stroke-width="0.3"/>
<rect x="11.15" y="122.15" width="144.7" height="39.7" rx="9.85" fill="white" stroke="#8B8B8B" stroke-width="0.3"/>
<rect x="164.15" y="122.15" width="144.7" height="39.7" rx="9.85" fill="white" stroke="#8B8B8B" stroke-width="0.3"/>
<path d="M28.48 39.12C27.4 39.12 26.4333 38.8867 25.58 38.42C24.74 37.9533 24.08 37.3133 23.6 36.5C23.12 35.6733 22.88 34.74 22.88 33.7C22.88 32.66 23.12 31.7333 23.6 30.92C24.08 30.0933 24.74 29.4533 25.58 29C26.4333 28.5333 27.4 28.3 28.48 28.3C29.44 28.3 30.2933 28.4933 31.04 28.88C31.8 29.2667 32.3867 29.8267 32.8 30.56L31.34 31.5C31.0067 30.9933 30.5933 30.6133 30.1 30.36C29.6067 30.1067 29.06 29.98 28.46 29.98C27.7667 29.98 27.14 30.1333 26.58 30.44C26.0333 30.7467 25.6 31.1867 25.28 31.76C24.9733 32.32 24.82 32.9667 24.82 33.7C24.82 34.4467 24.9733 35.1067 25.28 35.68C25.6 36.24 26.0333 36.6733 26.58 36.98C27.14 37.2867 27.7667 37.44 28.46 37.44C29.06 37.44 29.6067 37.3133 30.1 37.06C30.5933 36.8067 31.0067 36.4267 31.34 35.92L32.8 36.84C32.3867 37.5733 31.8 38.14 31.04 38.54C30.2933 38.9267 29.44 39.12 28.48 39.12ZM40.4695 37.44C41.7362 37.44 42.7562 37.0133 43.5295 36.16L44.5695 37.4C44.1029 37.96 43.5095 38.3867 42.7895 38.68C42.0829 38.9733 41.2895 39.12 40.4095 39.12C39.2895 39.12 38.2962 38.8933 37.4295 38.44C36.5629 37.9733 35.8895 37.3267 35.4095 36.5C34.9429 35.6733 34.7095 34.74 34.7095 33.7C34.7095 32.6733 34.9362 31.7467 35.3895 30.92C35.8562 30.0933 36.4895 29.4533 37.2895 29C38.1029 28.5333 39.0162 28.3 40.0295 28.3C40.9895 28.3 41.8629 28.52 42.6495 28.96C43.4362 29.3867 44.0629 29.9933 44.5295 30.78C44.9962 31.5667 45.2362 32.4733 45.2495 33.5L36.8295 35.14C37.0962 35.8733 37.5429 36.44 38.1695 36.84C38.8095 37.24 39.5762 37.44 40.4695 37.44ZM40.0295 29.92C39.3629 29.92 38.7629 30.0733 38.2295 30.38C37.7095 30.6867 37.3029 31.12 37.0095 31.68C36.7162 32.2267 36.5695 32.8667 36.5695 33.6V33.8L43.3495 32.52C43.1762 31.7467 42.7895 31.12 42.1895 30.64C41.5895 30.16 40.8695 29.92 40.0295 29.92ZM53.6156 28.3C54.6823 28.3 55.6223 28.5267 56.4356 28.98C57.2623 29.4333 57.8956 30.0733 58.3356 30.9C58.789 31.7133 59.0156 32.6533 59.0156 33.72C59.0156 34.7733 58.7956 35.7133 58.3556 36.54C57.9156 37.3533 57.3023 37.9867 56.5156 38.44C55.729 38.8933 54.829 39.12 53.8156 39.12C53.0156 39.12 52.2956 38.98 51.6556 38.7C51.0156 38.4067 50.4823 37.9867 50.0556 37.44V42.88H48.1156V33.74C48.1156 32.6733 48.3423 31.7267 48.7956 30.9C49.2623 30.0733 49.909 29.4333 50.7356 28.98C51.5756 28.5267 52.5356 28.3 53.6156 28.3ZM53.5556 37.44C54.2356 37.44 54.849 37.2867 55.3956 36.98C55.9423 36.66 56.3623 36.22 56.6556 35.66C56.9623 35.0867 57.1156 34.44 57.1156 33.72C57.1156 33 56.9623 32.36 56.6556 31.8C56.3623 31.2267 55.9423 30.78 55.3956 30.46C54.8623 30.14 54.249 29.98 53.5556 29.98C52.5023 29.98 51.649 30.3267 50.9956 31.02C50.3423 31.7 50.0156 32.5933 50.0156 33.7C50.0156 34.4333 50.1623 35.0867 50.4556 35.66C50.7623 36.22 51.1823 36.66 51.7156 36.98C52.249 37.2867 52.8623 37.44 53.5556 37.44ZM73.7378 37.32V41.54H71.9178V39H62.4178V28.4H64.3378V37.32H70.1378V28.4H72.0578V37.32H73.7378ZM81.5664 37.44C82.8331 37.44 83.8531 37.0133 84.6264 36.16L85.6664 37.4C85.1997 37.96 84.6064 38.3867 83.8864 38.68C83.1797 38.9733 82.3864 39.12 81.5064 39.12C80.3864 39.12 79.3931 38.8933 78.5264 38.44C77.6597 37.9733 76.9864 37.3267 76.5064 36.5C76.0397 35.6733 75.8064 34.74 75.8064 33.7C75.8064 32.6733 76.0331 31.7467 76.4864 30.92C76.9531 30.0933 77.5864 29.4533 78.3864 29C79.1997 28.5333 80.1131 28.3 81.1264 28.3C82.0864 28.3 82.9597 28.52 83.7464 28.96C84.5331 29.3867 85.1597 29.9933 85.6264 30.78C86.0931 31.5667 86.3331 32.4733 86.3464 33.5L77.9264 35.14C78.1931 35.8733 78.6397 36.44 79.2664 36.84C79.9064 37.24 80.6731 37.44 81.5664 37.44ZM81.1264 29.92C80.4597 29.92 79.8597 30.0733 79.3264 30.38C78.8064 30.6867 78.3997 31.12 78.1064 31.68C77.8131 32.2267 77.6664 32.8667 77.6664 33.6V33.8L84.4464 32.52C84.2731 31.7467 83.8864 31.12 83.2864 30.64C82.6864 30.16 81.9664 29.92 81.1264 29.92Z" fill="black"/>
<path d="M30.92 84.52C31.7093 84.52 32.424 84.7013 33.064 85.064C33.704 85.416 34.2053 85.9173 34.568 86.568C34.9307 87.2187 35.112 87.96 35.112 88.792C35.112 89.624 34.9307 90.3653 34.568 91.016C34.2053 91.6667 33.704 92.1733 33.064 92.536C32.424 92.8987 31.7093 93.08 30.92 93.08C30.216 93.08 29.5813 92.9307 29.016 92.632C28.4613 92.3333 28.0133 91.9013 27.672 91.336V93H26.584V81.128H27.72V86.184C28.072 85.64 28.52 85.2293 29.064 84.952C29.6187 84.664 30.2373 84.52 30.92 84.52ZM30.84 92.072C31.4267 92.072 31.96 91.9387 32.44 91.672C32.92 91.3947 33.2933 91.0053 33.56 90.504C33.8373 90.0027 33.976 89.432 33.976 88.792C33.976 88.152 33.8373 87.5813 33.56 87.08C33.2933 86.5787 32.92 86.1947 32.44 85.928C31.96 85.6507 31.4267 85.512 30.84 85.512C30.2427 85.512 29.704 85.6507 29.224 85.928C28.7547 86.1947 28.3813 86.5787 28.104 87.08C27.8373 87.5813 27.704 88.152 27.704 88.792C27.704 89.432 27.8373 90.0027 28.104 90.504C28.3813 91.0053 28.7547 91.3947 29.224 91.672C29.704 91.9387 30.2427 92.072 30.84 92.072ZM41.3477 93.08C40.5371 93.08 39.8064 92.8987 39.1557 92.536C38.5051 92.1627 37.9931 91.6507 37.6197 91C37.2464 90.3493 37.0597 89.6133 37.0597 88.792C37.0597 87.9707 37.2464 87.2347 37.6197 86.584C37.9931 85.9333 38.5051 85.4267 39.1557 85.064C39.8064 84.7013 40.5371 84.52 41.3477 84.52C42.1584 84.52 42.8891 84.7013 43.5398 85.064C44.1904 85.4267 44.6971 85.9333 45.0597 86.584C45.4331 87.2347 45.6198 87.9707 45.6198 88.792C45.6198 89.6133 45.4331 90.3493 45.0597 91C44.6971 91.6507 44.1904 92.1627 43.5398 92.536C42.8891 92.8987 42.1584 93.08 41.3477 93.08ZM41.3477 92.072C41.9451 92.072 42.4784 91.9387 42.9478 91.672C43.4277 91.3947 43.8011 91.0053 44.0677 90.504C44.3344 90.0027 44.4677 89.432 44.4677 88.792C44.4677 88.152 44.3344 87.5813 44.0677 87.08C43.8011 86.5787 43.4277 86.1947 42.9478 85.928C42.4784 85.6507 41.9451 85.512 41.3477 85.512C40.7504 85.512 40.2117 85.6507 39.7317 85.928C39.2624 86.1947 38.8891 86.5787 38.6117 87.08C38.3451 87.5813 38.2117 88.152 38.2117 88.792C38.2117 89.432 38.3451 90.0027 38.6117 90.504C38.8891 91.0053 39.2624 91.3947 39.7317 91.672C40.2117 91.9387 40.7504 92.072 41.3477 92.072ZM52.707 84.52C53.763 84.52 54.6003 84.8293 55.219 85.448C55.8483 86.056 56.163 86.9467 56.163 88.12V93H55.027V88.232C55.027 87.3573 54.8083 86.6907 54.371 86.232C53.9337 85.7733 53.3097 85.544 52.499 85.544C51.5923 85.544 50.8723 85.816 50.339 86.36C49.8163 86.8933 49.555 87.6347 49.555 88.584V93H48.419V84.584H49.507V86.136C49.8163 85.624 50.243 85.2293 50.787 84.952C51.3417 84.664 51.9817 84.52 52.707 84.52ZM63.3584 92.072C63.881 92.072 64.361 91.9813 64.7984 91.8C65.2464 91.608 65.625 91.3307 65.9344 90.968L66.5744 91.704C66.201 92.152 65.737 92.4933 65.1824 92.728C64.6277 92.9627 64.0144 93.08 63.3424 93.08C62.4784 93.08 61.7104 92.8987 61.0384 92.536C60.3664 92.1627 59.8437 91.6507 59.4704 91C59.097 90.3493 58.9104 89.6133 58.9104 88.792C58.9104 87.9707 59.0864 87.2347 59.4384 86.584C59.801 85.9333 60.297 85.4267 60.9264 85.064C61.5557 84.7013 62.2704 84.52 63.0704 84.52C63.817 84.52 64.489 84.6907 65.0864 85.032C65.6944 85.3733 66.1744 85.848 66.5264 86.456C66.889 87.064 67.081 87.7573 67.1024 88.536L60.1904 89.88C60.4037 90.5627 60.7877 91.1013 61.3424 91.496C61.9077 91.88 62.5797 92.072 63.3584 92.072ZM63.0704 85.496C62.4837 85.496 61.9557 85.6347 61.4864 85.912C61.0277 86.1787 60.665 86.5573 60.3984 87.048C60.1424 87.528 60.0144 88.0827 60.0144 88.712C60.0144 88.872 60.0197 88.9893 60.0304 89.064L65.9664 87.912C65.8384 87.208 65.513 86.632 64.9904 86.184C64.4677 85.7253 63.8277 85.496 63.0704 85.496Z" fill="black"/>
<path d="M29.84 148.08C29.1573 148.08 28.5013 147.984 27.872 147.792C27.2533 147.589 26.768 147.339 26.416 147.04L26.928 146.144C27.28 146.421 27.7227 146.651 28.256 146.832C28.7893 147.003 29.344 147.088 29.92 147.088C30.688 147.088 31.2533 146.971 31.616 146.736C31.9893 146.491 32.176 146.149 32.176 145.712C32.176 145.403 32.0747 145.163 31.872 144.992C31.6693 144.811 31.4133 144.677 31.104 144.592C30.7947 144.496 30.384 144.405 29.872 144.32C29.1893 144.192 28.64 144.064 28.224 143.936C27.808 143.797 27.4507 143.568 27.152 143.248C26.864 142.928 26.72 142.485 26.72 141.92C26.72 141.216 27.0133 140.64 27.6 140.192C28.1867 139.744 29.0027 139.52 30.048 139.52C30.592 139.52 31.136 139.595 31.68 139.744C32.224 139.883 32.672 140.069 33.024 140.304L32.528 141.216C31.8347 140.736 31.008 140.496 30.048 140.496C29.3227 140.496 28.7733 140.624 28.4 140.88C28.0373 141.136 27.856 141.472 27.856 141.888C27.856 142.208 27.9573 142.464 28.16 142.656C28.3733 142.848 28.6347 142.992 28.944 143.088C29.2533 143.173 29.68 143.264 30.224 143.36C30.896 143.488 31.4347 143.616 31.84 143.744C32.2453 143.872 32.592 144.091 32.88 144.4C33.168 144.709 33.312 145.136 33.312 145.68C33.312 146.416 33.0027 147.003 32.384 147.44C31.776 147.867 30.928 148.08 29.84 148.08ZM39.0121 143.776L37.0281 145.6V148H35.8921V136.128H37.0281V144.176L42.0521 139.584H43.4601L39.8601 143.024L43.7961 148H42.4041L39.0121 143.776ZM45.8565 139.584H46.9925V148H45.8565V139.584ZM46.4325 137.744C46.1978 137.744 46.0005 137.664 45.8405 137.504C45.6805 137.344 45.6005 137.152 45.6005 136.928C45.6005 136.715 45.6805 136.528 45.8405 136.368C46.0005 136.208 46.1978 136.128 46.4325 136.128C46.6672 136.128 46.8645 136.208 47.0245 136.368C47.1845 136.517 47.2645 136.699 47.2645 136.912C47.2645 137.147 47.1845 137.344 47.0245 137.504C46.8645 137.664 46.6672 137.744 46.4325 137.744ZM54.9214 139.52C55.9774 139.52 56.8147 139.829 57.4334 140.448C58.0627 141.056 58.3774 141.947 58.3774 143.12V148H57.2414V143.232C57.2414 142.357 57.0227 141.691 56.5854 141.232C56.148 140.773 55.524 140.544 54.7134 140.544C53.8067 140.544 53.0867 140.816 52.5534 141.36C52.0307 141.893 51.7694 142.635 51.7694 143.584V148H50.6334V139.584H51.7214V141.136C52.0307 140.624 52.4574 140.229 53.0014 139.952C53.556 139.664 54.196 139.52 54.9214 139.52Z" fill="black"/>
<path d="M191.984 85.44C193.061 85.44 193.915 85.7547 194.544 86.384C195.184 87.0027 195.504 87.9147 195.504 89.12V94H193.968V89.296C193.968 88.4747 193.771 87.856 193.376 87.44C192.981 87.024 192.416 86.816 191.68 86.816C190.848 86.816 190.192 87.0613 189.712 87.552C189.232 88.032 188.992 88.7253 188.992 89.632V94H187.456V82.128H188.992V86.72C189.312 86.3147 189.728 86 190.24 85.776C190.763 85.552 191.344 85.44 191.984 85.44ZM202.697 92.752C203.711 92.752 204.527 92.4107 205.145 91.728L205.977 92.72C205.604 93.168 205.129 93.5093 204.553 93.744C203.988 93.9787 203.353 94.096 202.649 94.096C201.753 94.096 200.959 93.9147 200.265 93.552C199.572 93.1787 199.033 92.6613 198.649 92C198.276 91.3387 198.089 90.592 198.089 89.76C198.089 88.9387 198.271 88.1973 198.633 87.536C199.007 86.8747 199.513 86.3627 200.153 86C200.804 85.6267 201.535 85.44 202.345 85.44C203.113 85.44 203.812 85.616 204.441 85.968C205.071 86.3093 205.572 86.7947 205.946 87.424C206.319 88.0533 206.511 88.7787 206.521 89.6L199.785 90.912C199.999 91.4987 200.356 91.952 200.857 92.272C201.369 92.592 201.983 92.752 202.697 92.752ZM202.345 86.736C201.812 86.736 201.332 86.8587 200.905 87.104C200.489 87.3493 200.164 87.696 199.929 88.144C199.695 88.5813 199.577 89.0933 199.577 89.68V89.84L205.002 88.816C204.863 88.1973 204.553 87.696 204.073 87.312C203.593 86.928 203.017 86.736 202.345 86.736ZM217.15 85.52V94H215.678V92.656C215.337 93.1253 214.905 93.4827 214.382 93.728C213.86 93.9733 213.284 94.096 212.654 94.096C211.833 94.096 211.097 93.9147 210.446 93.552C209.796 93.1893 209.284 92.6827 208.91 92.032C208.548 91.3707 208.366 90.6133 208.366 89.76C208.366 88.9067 208.548 88.1547 208.91 87.504C209.284 86.8533 209.796 86.3467 210.446 85.984C211.097 85.6213 211.833 85.44 212.654 85.44C213.262 85.44 213.822 85.5573 214.334 85.792C214.846 86.016 215.273 86.352 215.614 86.8V85.52H217.15ZM212.782 92.752C213.316 92.752 213.801 92.6293 214.238 92.384C214.676 92.128 215.017 91.776 215.262 91.328C215.508 90.8693 215.63 90.3467 215.63 89.76C215.63 89.1733 215.508 88.656 215.262 88.208C215.017 87.7493 214.676 87.3973 214.238 87.152C213.801 86.9067 213.316 86.784 212.782 86.784C212.238 86.784 211.748 86.9067 211.31 87.152C210.884 87.3973 210.542 87.7493 210.286 88.208C210.041 88.656 209.918 89.1733 209.918 89.76C209.918 90.3467 210.041 90.8693 210.286 91.328C210.542 91.776 210.884 92.128 211.31 92.384C211.748 92.6293 212.238 92.752 212.782 92.752ZM222.009 86.944C222.275 86.4533 222.67 86.08 223.193 85.824C223.715 85.568 224.35 85.44 225.097 85.44V86.928C225.011 86.9173 224.894 86.912 224.745 86.912C223.913 86.912 223.257 87.1627 222.777 87.664C222.307 88.1547 222.073 88.8587 222.073 89.776V94H220.537V85.52H222.009V86.944ZM231.934 93.504C231.71 93.696 231.432 93.8453 231.102 93.952C230.771 94.048 230.43 94.096 230.078 94.096C229.224 94.096 228.563 93.8667 228.094 93.408C227.624 92.9493 227.39 92.2933 227.39 91.44V83.664H228.926V85.52H231.358V86.784H228.926V91.376C228.926 91.8347 229.038 92.1867 229.262 92.432C229.496 92.6773 229.827 92.8 230.254 92.8C230.723 92.8 231.123 92.6667 231.454 92.4L231.934 93.504Z" fill="black"/>
<path d="M189.952 148.08C189.195 148.08 188.608 147.867 188.192 147.44C187.787 147.013 187.584 146.421 187.584 145.664V136.128H188.72V145.568C188.72 146.069 188.837 146.453 189.072 146.72C189.307 146.976 189.659 147.104 190.128 147.104C190.427 147.104 190.683 147.056 190.896 146.96L190.976 147.904C190.645 148.021 190.304 148.08 189.952 148.08ZM193.002 139.584H194.138V148H193.002V139.584ZM193.578 137.744C193.343 137.744 193.146 137.664 192.986 137.504C192.826 137.344 192.746 137.152 192.746 136.928C192.746 136.715 192.826 136.528 192.986 136.368C193.146 136.208 193.343 136.128 193.578 136.128C193.812 136.128 194.01 136.208 194.17 136.368C194.33 136.517 194.41 136.699 194.41 136.912C194.41 137.147 194.33 137.344 194.17 137.504C194.01 137.664 193.812 137.744 193.578 137.744ZM204.85 139.584L201.106 148H199.938L196.21 139.584H197.394L200.546 146.752L203.73 139.584H204.85ZM210.296 147.072C210.819 147.072 211.299 146.981 211.736 146.8C212.184 146.608 212.563 146.331 212.872 145.968L213.512 146.704C213.139 147.152 212.675 147.493 212.12 147.728C211.565 147.963 210.952 148.08 210.28 148.08C209.416 148.08 208.648 147.899 207.976 147.536C207.304 147.163 206.781 146.651 206.408 146C206.035 145.349 205.848 144.613 205.848 143.792C205.848 142.971 206.024 142.235 206.376 141.584C206.739 140.933 207.235 140.427 207.864 140.064C208.493 139.701 209.208 139.52 210.008 139.52C210.755 139.52 211.427 139.691 212.024 140.032C212.632 140.373 213.112 140.848 213.464 141.456C213.827 142.064 214.019 142.757 214.04 143.536L207.128 144.88C207.341 145.563 207.725 146.101 208.28 146.496C208.845 146.88 209.517 147.072 210.296 147.072ZM210.008 140.496C209.421 140.496 208.893 140.635 208.424 140.912C207.965 141.179 207.603 141.557 207.336 142.048C207.08 142.528 206.952 143.083 206.952 143.712C206.952 143.872 206.957 143.989 206.968 144.064L212.904 142.912C212.776 142.208 212.451 141.632 211.928 141.184C211.405 140.725 210.765 140.496 210.008 140.496ZM217.92 141.232C218.187 140.667 218.581 140.24 219.104 139.952C219.637 139.664 220.293 139.52 221.072 139.52V140.624L220.8 140.608C219.915 140.608 219.221 140.88 218.72 141.424C218.219 141.968 217.968 142.731 217.968 143.712V148H216.832V139.584H217.92V141.232Z" fill="black"/>
</svg>
